<svg xmlns="http://www.w3.org/2000/svg" width="306.429" height="109.863" viewBox="0 0 306.429 109.863"><path d="M1.245-73.242,30.688,0H48.267l29.37-73.242h-20.8L39.258-27.466,22.046-73.242ZM87.667,0V-73.315h20.508V0Zm-.732-90.82a9.937,9.937,0,0,0,2.93,7.324,10.887,10.887,0,0,0,8.057,2.93,10.887,10.887,0,0,0,8.057-2.93,9.937,9.937,0,0,0,2.93-7.324,10.06,10.06,0,0,0-2.93-7.361q-2.93-2.966-8.2-2.966a10.615,10.615,0,0,0-7.91,2.966A10.06,10.06,0,0,0,86.934-90.82Zm29.732,17.578L146.11,0h17.578l29.37-73.242h-20.8L154.679-27.466,137.467-73.242ZM203.088,0V-73.315H223.6V0Zm-.732-90.82a9.937,9.937,0,0,0,2.93,7.324,10.887,10.887,0,0,0,8.057,2.93A10.887,10.887,0,0,0,221.4-83.5a9.937,9.937,0,0,0,2.93-7.324,10.06,10.06,0,0,0-2.93-7.361q-2.93-2.966-8.2-2.966a10.615,10.615,0,0,0-7.91,2.966A10.06,10.06,0,0,0,202.356-90.82Zm105.318-18.97V0H287.166V-5.859Q278.963,0,271.053,0,254.207,0,244.32-10.986a37.119,37.119,0,0,1-9.888-25.635,37.119,37.119,0,0,1,9.888-25.635q9.888-10.986,26.733-10.986,10.986.732,16.113,5.933v-42.554ZM287.166-30.029V-41.895Q285.7-54.2,271.785-56.323q-17.578,1.392-19.775,18.237.732,20.508,19.775,21.24Q285.7-19.043,287.166-30.029Z" transform="translate(-1.245 109.863)" fill="#334155"/></svg>